<?xml version="1.0" standalone="no"?>
<!DOCTYPE svg PUBLIC "-//W3C//DTD SVG 20010904//EN"
 "http://www.w3.org/TR/2001/REC-SVG-20010904/DTD/svg10.dtd">
<svg version="1.0" xmlns="http://www.w3.org/2000/svg"
 width="362.000000pt" height="306.000000pt" viewBox="0 0 362.000000 306.000000"
 preserveAspectRatio="xMidYMid meet">

<g transform="translate(0.000000,306.000000) scale(0.100000,-0.100000)"
fill="#000000" stroke="none">
<path d="M1595 3028 c-35 -19 -45 -40 -45 -96 l0 -54 -56 7 c-31 4 -92 18
-137 31 -101 31 -235 41 -306 24 -36 -8 -66 -25 -101 -57 l-50 -45 0 -119 0
-119 -27 -11 c-16 -6 -45 -13 -65 -16 l-38 -6 0 94 c0 68 -4 101 -15 116 -21
29 -106 46 -230 46 -218 -1 -394 -81 -455 -207 -25 -53 -25 -78 0 -94 11 -7
20 -18 20 -25 0 -8 6 -14 13 -14 6 -1 38 -11 70 -22 32 -12 77 -23 100 -25 23
-2 32 -2 20 1 -28 5 -40 21 -46 58 -4 27 -4 27 -6 -7 0 -21 -4 -38 -7 -38 -12
0 -32 28 -37 51 -3 19 -5 17 -6 -9 0 -19 -5 -31 -11 -27 -5 3 -11 48 -12 98
l-2 92 -6 -90 c-6 -105 -18 -95 -23 20 l-3 80 -3 -90 c-3 -104 -18 -90 -22 20
-2 64 -1 70 25 90 87 70 248 124 367 125 129 0 208 -12 234 -36 23 -22 25 -29
24 -116 -1 -67 -4 -83 -9 -58 l-7 35 -2 -33 c0 -19 -5 -31 -11 -27 -5 3 -10 2
-10 -3 0 -5 -10 -8 -22 -7 -18 1 -24 10 -29 36 l-6 34 -2 -37 c0 -21 -5 -38
-11 -38 -5 0 -11 17 -11 38 l-2 37 -7 -40 c-6 -40 -15 -35 -23 15 -3 18 -5 14
-6 -12 -1 -33 2 -38 25 -44 42 -11 182 3 263 26 99 28 185 71 189 96 4 18 3
18 -12 -1 -10 -13 -15 -15 -16 -6 0 8 -8 3 -20 -11 -21 -27 -95 -62 -111 -53
-5 4 -9 52 -8 108 0 72 3 95 9 79 11 -27 52 -44 85 -36 35 9 41 23 34 79 l-6
50 -1 -55 c-2 -64 -19 -58 -25 10 l-4 45 -3 -55 -3 -55 -7 40 -7 40 -2 -38
c-1 -43 -20 -42 -22 1 -1 23 -3 22 -9 -8 -5 -28 -8 -32 -15 -17 -15 35 8 80
58 111 73 45 165 47 328 8 69 -17 150 -34 180 -38 30 -4 58 -12 62 -18 5 -6 6
16 2 50 -5 51 -2 65 13 84 l19 23 6 -22 c4 -17 2 -21 -9 -17 -8 3 -14 2 -14
-2 0 -13 15 -28 31 -34 35 -13 28 -236 -8 -264 -26 -20 -77 -32 -199 -49 -111
-14 -163 -28 -200 -52 -11 -7 -24 -10 -27 -6 -4 3 -7 48 -7 100 0 102 -13 133
-57 133 -20 0 -23 5 -25 48 l-1 47 -4 -45 c-3 -24 -10 -48 -16 -53 -8 -5 -7
-7 3 -5 27 4 68 -11 74 -28 12 -31 19 -300 8 -289 -6 6 -12 24 -15 40 -4 27
-4 26 -6 -8 -2 -72 -21 -27 -23 56 l-2 82 -5 -90 c-4 -64 -10 -89 -18 -87 -7
1 -13 -3 -13 -9 0 -28 323 57 545 143 261 102 426 154 593 188 204 40 316 51
549 51 307 0 538 -32 675 -96 101 -46 98 -37 98 -339 0 -143 4 -448 9 -676 15
-656 20 -1163 11 -1090 -7 51 -36 1346 -41 1835 -1 58 -4 81 -9 65 -4 -14 -6
-153 -4 -310 2 -195 0 -258 -6 -200 -4 47 -8 193 -9 324 -1 132 -4 237 -7 233
-4 -3 -2 -246 2 -539 7 -402 10 -489 14 -353 5 168 6 174 13 95 8 -97 15 -601
7 -593 -3 2 -8 64 -11 136 -5 110 -6 93 -6 -103 -1 -131 3 -224 7 -210 4 14 9
43 11 65 3 52 16 -223 18 -389 1 -118 0 -128 -16 -121 -168 73 -284 90 -553
82 -347 -11 -608 -68 -995 -219 -382 -149 -680 -208 -1045 -208 -349 0 -733
73 -809 153 -20 22 -20 38 -31 642 -6 341 -12 647 -14 680 -2 33 -2 -246 1
-620 l4 -680 27 -28 c15 -16 47 -39 72 -52 49 -25 251 -75 400 -100 129 -22
483 -31 635 -16 218 21 495 88 690 166 50 20 108 43 129 51 l40 15 -25 -27
c-37 -40 -150 -93 -221 -103 -113 -16 -226 -73 -324 -163 -38 -35 -48 -40 -62
-30 -58 42 -119 52 -177 28 -67 -28 -36 -88 52 -102 21 -3 49 -1 63 5 23 10
22 10 -10 6 -19 -3 -48 -1 -65 4 -27 8 -25 9 25 11 54 2 54 2 20 12 -19 5 -49
8 -67 6 -26 -3 -33 0 -33 14 0 40 94 47 162 12 32 -16 35 -29 12 -38 -9 -4
-15 -9 -12 -11 3 -3 19 1 37 8 17 7 29 16 25 19 -9 10 153 127 211 154 28 12
73 26 100 29 70 10 164 34 198 52 16 8 48 32 71 53 60 55 99 71 202 83 l93 11
6 33 c3 18 13 34 23 37 41 12 228 46 309 56 48 6 96 13 105 16 9 3 21 -3 27
-13 10 -17 10 -17 12 2 1 14 4 11 9 -10 6 -24 8 -26 9 -7 0 12 6 22 11 22 6 0
10 -34 9 -82 0 -46 -3 -77 -6 -70 -2 6 -9 9 -15 6 -6 -4 -14 0 -19 7 -5 8 -9
10 -9 4 0 -6 -40 -9 -107 -7 -132 4 -231 -17 -302 -64 -49 -31 -50 -32 -55
-11 -3 12 -3 -2 -1 -32 6 -75 16 -83 92 -79 54 3 64 0 69 -15 3 -10 -2 -30
-11 -45 l-16 -27 25 28 c29 32 37 91 11 81 -12 -5 -15 5 -14 57 1 47 3 57 9
39 8 -24 8 -24 9 6 1 33 18 44 69 44 21 0 22 -4 22 -75 l0 -75 34 0 c30 0 35
-4 39 -27 l4 -28 2 30 c3 30 3 29 16 -10 l13 -40 2 35 3 35 7 -40 c5 -27 8
-32 9 -15 1 14 6 32 11 40 8 12 10 12 10 -5 0 -12 3 -16 8 -9 11 16 41 24 48
13 3 -6 12 -2 21 10 8 12 20 21 27 21 23 0 36 50 34 133 -1 46 -3 63 -5 40 -7
-80 -23 -44 -22 50 0 50 3 85 6 77 11 -27 25 -28 61 -4 31 21 46 24 136 24
199 0 390 -40 443 -92 12 -13 25 -38 29 -56 6 -29 2 -37 -36 -72 -54 -49 -124
-77 -264 -101 -59 -10 -113 -19 -118 -19 -5 0 -26 -18 -47 -39 -43 -44 -83
-58 -183 -67 -34 -3 -67 -10 -73 -16 -7 -7 11 -8 60 -4 106 11 172 32 209 69
32 32 36 33 187 50 154 18 154 18 232 65 l77 47 0 260 c0 143 -7 663 -15 1155
l-14 895 -33 28 c-59 50 -131 78 -235 92 -225 31 -414 45 -611 45 -237 0 -391
-16 -567 -59 -66 -16 -121 -28 -123 -26 -5 4 109 84 184 128 l60 36 49 -14
c60 -19 77 -19 121 0 30 12 34 17 25 33 -15 29 -64 45 -113 38 -24 -4 -88 -11
-143 -15 -55 -5 -116 -14 -135 -21 -19 -7 -64 -15 -100 -20 -64 -7 -64 -7 -15
-8 28 -1 83 7 124 18 79 21 181 27 181 10 0 -5 -15 -17 -32 -26 -18 -9 -69
-40 -113 -69 -109 -71 -136 -84 -213 -101 -63 -13 -176 -10 -200 5 -12 8 -23
241 -11 241 5 0 37 -11 71 -24 96 -36 106 -39 68 -17 -35 20 -152 61 -174 61
-6 0 -20 -6 -31 -12z m808 -50 c36 -19 11 -33 -56 -33 -49 0 -71 4 -83 17 -18
18 -21 17 51 31 23 5 62 -2 88 -15z m-618 -263 c-66 -25 -122 -45 -125 -45 -3
0 -4 18 -2 41 l4 41 52 -5 c28 -3 74 -2 101 2 94 15 90 10 -30 -34z m-327
-124 c10 -6 6 -10 -15 -14 -15 -4 -76 -19 -135 -35 -60 -17 -108 -27 -108 -23
0 12 69 53 112 66 49 16 127 19 146 6z m872 -2070 c0 -16 -10 -20 -52 -26 -29
-3 -62 -9 -73 -12 -41 -11 -4 10 57 33 35 12 64 23 66 23 1 1 2 -8 2 -18z
m514 -95 c42 -27 49 -56 20 -86 -22 -23 -33 -25 -128 -28 l-103 -4 -7 32 c-9
50 -7 85 7 99 18 19 177 10 211 -13z m-354 -55 c0 -28 -4 -53 -10 -56 -5 -3
-10 -1 -10 5 0 7 -6 8 -19 0 -30 -15 -31 -14 -30 38 0 35 3 42 9 27 8 -19 9
-18 9 4 1 20 3 21 16 11 12 -10 15 -10 15 4 0 9 5 16 10 16 6 0 10 -22 10 -49z
m-80 -26 c0 -19 -2 -35 -5 -35 -10 0 -24 40 -19 54 11 28 24 17 24 -19z"/>
<path d="M1052 2885 c0 -16 2 -22 5 -12 2 9 2 23 0 30 -3 6 -5 -1 -5 -18z"/>
<path d="M1613 2785 c0 -33 2 -45 4 -27 2 18 2 45 0 60 -2 15 -4 0 -4 -33z"/>
<path d="M1593 2760 c0 -25 2 -35 4 -22 2 12 2 32 0 45 -2 12 -4 2 -4 -23z"/>
<path d="M720 2715 c-6 -8 -30 -18 -53 -24 -24 -5 -32 -9 -19 -10 27 -1 87 22
96 38 10 16 -10 13 -24 -4z"/>
<path d="M1113 2708 c-25 -32 -26 -40 -4 -26 12 7 21 18 21 25 0 16 -5 16 -17
1z"/>
<path d="M182 2680 c0 -14 2 -19 5 -12 2 6 2 18 0 25 -3 6 -5 1 -5 -13z"/>
<path d="M213 2635 c0 -38 2 -53 4 -32 2 20 2 52 0 70 -2 17 -4 1 -4 -38z"/>
<path d="M560 2674 c-11 -3 -14 -16 -12 -52 3 -44 2 -46 -13 -28 -8 11 -15 14
-15 7 0 -7 -4 -10 -9 -6 -5 3 -12 1 -16 -4 -5 -9 53 -31 82 -31 12 0 11 17 -2
83 -2 11 5 21 18 27 20 8 21 9 2 8 -11 0 -27 -2 -35 -4z"/>
<path d="M490 2640 c-11 -11 -20 -26 -20 -32 0 -8 5 -6 11 4 5 10 19 24 32 33
12 8 16 15 9 15 -6 0 -21 -9 -32 -20z"/>
<path d="M713 2625 c0 -22 2 -30 4 -17 2 12 2 30 0 40 -3 9 -5 -1 -4 -23z"/>
<path d="M1073 2575 c0 -27 2 -38 4 -22 2 15 2 37 0 50 -2 12 -4 0 -4 -28z"/>
<path d="M292 2540 c0 -14 2 -19 5 -12 2 6 2 18 0 25 -3 6 -5 1 -5 -13z"/>
<path d="M3444 2405 c0 -82 2 -115 3 -72 2 43 2 110 0 150 -1 40 -3 5 -3 -78z"/>
<path d="M74 2300 c0 -113 2 -159 3 -102 2 56 2 148 0 205 -1 56 -3 10 -3
-103z"/>
<path d="M1051 2473 c-1 -16 -9 -23 -28 -26 l-28 -4 28 -2 c28 -1 43 17 34 41
-3 7 -6 3 -6 -9z"/>
<path d="M54 2130 c0 -190 2 -267 3 -172 2 94 2 250 0 345 -1 94 -3 17 -3
-173z"/>
<path d="M471 2443 c0 -12 -7 -24 -13 -26 -7 -3 5 -5 27 -5 22 0 30 3 18 5
-13 2 -24 13 -26 26 l-4 22 -2 -22z"/>
<path d="M360 2429 c-20 -6 -17 -7 18 -8 23 -1 42 1 42 3 0 9 -37 12 -60 5z"/>
<path d="M933 2433 c9 -2 25 -2 35 0 9 3 1 5 -18 5 -19 0 -27 -2 -17 -5z"/>
<path d="M843 2423 c15 -2 37 -2 50 0 12 2 0 4 -28 4 -27 0 -38 -2 -22 -4z"/>
<path d="M643 2413 c32 -2 81 -2 110 0 29 2 3 3 -58 3 -60 0 -84 -1 -52 -3z"/>
<path d="M2794 2299 c-47 -45 -54 -57 -54 -90 0 -32 -3 -39 -20 -39 -11 0 -20
-7 -20 -15 0 -11 7 -14 24 -9 22 5 24 2 34 -69 23 -150 25 -187 13 -187 -6 0
-11 -5 -11 -11 0 -13 109 -3 125 12 5 6 3 9 -8 9 -9 0 -17 2 -17 5 0 11 -30
211 -35 232 -4 18 1 22 35 28 51 9 52 25 1 25 -43 0 -51 10 -51 66 0 43 22 45
59 5 l28 -30 16 35 c22 45 21 61 -2 74 -37 19 -62 10 -117 -41z"/>
<path d="M3394 2205 c0 -71 1 -99 3 -62 2 37 2 96 0 130 -2 34 -3 4 -3 -68z"/>
<path d="M3424 2155 c0 -82 2 -115 3 -72 2 43 2 110 0 150 -1 40 -3 5 -3 -78z"/>
<path d="M2436 2260 c-42 -13 -113 -87 -132 -137 -38 -99 6 -220 99 -273 61
-35 103 -38 156 -10 124 63 161 231 75 347 -45 61 -133 93 -198 73z m69 -83
c21 -12 54 -41 72 -65 27 -36 33 -52 33 -95 0 -31 -8 -67 -21 -95 -21 -42 -23
-44 -57 -38 -44 7 -103 45 -137 90 -44 58 -46 137 -5 204 24 39 43 38 115 -1z"/>
<path d="M1963 2228 c-41 -9 -60 -28 -28 -28 8 0 15 -8 15 -17 0 -10 9 -99 19
-198 18 -168 18 -181 3 -199 -16 -18 -15 -18 48 -11 74 8 79 11 58 28 -12 9
-20 56 -32 192 -19 202 -25 245 -35 244 -3 -1 -25 -5 -48 -11z"/>
<path d="M1806 2211 c-31 -6 -48 -31 -22 -31 9 0 16 -6 16 -12 0 -7 7 -94 16
-192 13 -136 14 -184 5 -198 -10 -17 -7 -18 38 -18 27 0 57 3 65 6 15 6 15 8
1 18 -12 8 -20 60 -35 221 -11 116 -20 211 -20 213 0 3 -32 0 -64 -7z"/>
<path d="M3454 1975 c0 -137 2 -195 3 -128 2 67 2 179 0 250 -1 70 -3 16 -3
-122z"/>
<path d="M719 2120 c-46 -24 -69 -60 -69 -107 0 -33 9 -46 90 -127 80 -79 91
-93 88 -120 -2 -22 -9 -32 -23 -34 -32 -4 -88 39 -112 87 -29 58 -29 58 -47
22 -24 -45 -20 -79 12 -111 77 -77 225 -34 239 68 5 40 3 44 -43 90 -27 26
-74 68 -104 93 -52 44 -54 48 -45 75 8 23 16 29 40 29 22 0 35 -8 53 -35 13
-19 26 -36 30 -37 4 -2 19 15 34 36 l28 39 -24 15 c-13 9 -37 19 -52 22 -16 4
-36 8 -44 10 -8 2 -31 -5 -51 -15z"/>
<path d="M103 2015 c0 -38 2 -53 4 -32 2 20 2 52 0 70 -2 17 -4 1 -4 -38z"/>
<path d="M1548 2035 c-40 -27 -78 -96 -78 -141 0 -40 39 -113 73 -138 20 -14
44 -21 77 -21 40 0 54 5 81 30 45 43 72 107 64 154 -20 117 -129 176 -217 116z
m130 -95 c26 -38 28 -88 7 -130 -18 -36 -27 -37 -71 -9 -70 43 -94 121 -58
190 l15 30 42 -24 c23 -14 52 -39 65 -57z"/>
<path d="M1258 2027 c-48 -9 -60 -20 -34 -30 9 -4 15 -39 20 -127 7 -111 6
-123 -11 -136 -16 -12 -9 -13 55 -14 41 0 72 4 72 10 0 6 -6 10 -14 10 -16 0
-24 49 -27 154 -2 63 0 71 19 79 15 7 28 5 45 -6 23 -15 24 -14 41 14 14 24
15 33 6 44 -18 21 -64 18 -85 -5 -22 -25 -33 -25 -37 -2 -3 15 -9 16 -50 9z"/>
<path d="M1025 2011 c-97 -58 -124 -174 -58 -251 55 -66 136 -80 185 -33 15
15 28 30 28 34 0 3 -20 4 -43 2 -82 -10 -137 42 -137 127 0 23 7 54 15 71 15
28 17 29 44 14 16 -8 37 -26 48 -40 l18 -26 34 35 c37 39 36 47 -13 70 -45 21
-84 20 -121 -3z"/>
<path d="M84 1755 c0 -115 2 -161 3 -102 2 59 2 154 0 210 -1 56 -3 8 -3 -108z"/>
<path d="M133 1680 c0 -47 2 -66 4 -42 2 23 2 61 0 85 -2 23 -4 4 -4 -43z"/>
<path d="M3434 1610 c0 -69 1 -97 3 -62 2 34 2 90 0 125 -2 34 -3 6 -3 -63z"/>
<path d="M113 1525 c0 -44 2 -61 4 -37 2 23 2 59 0 80 -2 20 -4 1 -4 -43z"/>
<path d="M3464 1410 c0 -96 2 -136 3 -87 2 48 2 126 0 175 -1 48 -3 8 -3 -88z"/>
<path d="M94 1305 c0 -121 2 -169 3 -107 2 62 2 161 0 220 -1 59 -3 8 -3 -113z"/>
<path d="M1161 1366 c-42 -11 -69 -36 -38 -36 15 0 20 -38 33 -271 6 -102 5
-117 -10 -122 -9 -4 -16 -11 -16 -17 0 -7 22 -8 68 -4 77 8 81 10 60 27 -11 8
-17 35 -21 85 -4 65 -3 72 14 72 19 0 52 -40 101 -124 27 -45 29 -46 78 -46
48 0 66 12 36 23 -8 3 -40 47 -71 98 -46 75 -55 96 -46 108 58 80 65 118 29
171 -37 53 -51 58 -103 32 -54 -26 -55 -26 -55 -8 0 22 -11 24 -59 12z m133
-68 c28 -39 20 -93 -18 -136 -19 -20 -37 -35 -39 -32 -3 3 -8 47 -12 98 l-7
92 30 0 c21 0 36 -8 46 -22z"/>
<path d="M2230 1362 c-40 -19 -70 -71 -70 -119 0 -37 16 -48 110 -78 82 -26
109 -57 75 -85 -22 -19 -61 -4 -111 42 -24 22 -46 39 -48 37 -55 -64 6 -136
107 -126 66 6 109 47 109 103 0 47 -21 66 -119 103 -59 23 -68 30 -68 51 0 34
47 40 85 12 l27 -20 16 28 c24 40 22 48 -20 59 -50 14 -52 14 -93 -7z"/>
<path d="M2035 1320 c-13 -25 -19 -29 -35 -20 -50 27 -128 1 -160 -53 -35 -56
-24 -120 28 -164 24 -20 25 -24 13 -47 -12 -22 -12 -29 2 -50 31 -47 121 -41
181 12 19 17 19 17 0 -16 -10 -18 -30 -40 -44 -49 -31 -21 -121 -23 -144 -4
-22 18 -25 14 -28 -39 l-3 -45 55 -3 c117 -7 190 52 198 161 l5 60 -32 -22
c-39 -28 -105 -39 -126 -21 -19 16 -19 30 0 30 28 0 91 38 109 65 27 41 30 85
8 127 -22 41 -19 48 15 48 16 0 27 8 33 26 14 35 14 34 -25 34 -28 0 -37 -5
-50 -30z m-45 -107 c16 -21 20 -36 16 -62 -3 -19 -10 -39 -16 -45 -17 -17 -75
18 -94 58 -15 32 -15 39 -2 71 15 36 15 36 45 21 16 -9 39 -28 51 -43z"/>
<path d="M144 1220 c0 -69 1 -97 3 -62 2 34 2 90 0 125 -2 34 -3 6 -3 -63z"/>
<path d="M1698 1283 c-45 -13 -65 -33 -34 -33 9 0 15 -19 20 -62 3 -35 9 -87
12 -115 6 -49 4 -53 -17 -61 -30 -11 -56 -5 -64 16 -4 10 -13 68 -20 130 -7
62 -15 115 -17 118 -3 2 -20 -1 -39 -7 -19 -6 -41 -13 -49 -16 -12 -4 -12 -7
4 -19 16 -11 22 -35 32 -126 10 -102 14 -114 38 -135 15 -13 39 -26 53 -29 22
-6 32 -1 54 25 26 31 27 32 34 12 5 -16 14 -21 43 -21 45 0 76 15 51 25 -13 5
-19 37 -29 156 -7 82 -16 151 -19 153 -3 1 -27 -4 -53 -11z"/>
<path d="M3444 1145 c0 -60 1 -84 3 -52 2 32 2 81 0 110 -2 29 -3 3 -3 -58z"/>
<path d="M124 1085 c0 -66 1 -92 3 -57 2 34 2 88 0 120 -2 31 -3 3 -3 -63z"/>
<path d="M3414 1095 c0 -49 1 -71 3 -48 2 23 2 64 0 90 -2 26 -3 8 -3 -42z"/>
<path d="M3474 920 c0 -91 2 -128 3 -82 2 45 2 119 0 165 -1 45 -3 8 -3 -83z"/>
<path d="M104 875 c0 -104 2 -146 3 -92 2 54 2 139 0 190 -1 51 -3 7 -3 -98z"/>
<path d="M3504 785 c0 -99 2 -138 3 -87 2 51 2 132 0 180 -1 48 -3 6 -3 -93z"/>
<path d="M153 790 c0 -25 2 -35 4 -22 2 12 2 32 0 45 -2 12 -4 2 -4 -23z"/>
<path d="M3423 735 c0 -22 2 -30 4 -17 2 12 2 30 0 40 -3 9 -5 -1 -4 -23z"/>
<path d="M134 575 c0 -66 1 -92 3 -57 2 34 2 88 0 120 -2 31 -3 3 -3 -63z"/>
<path d="M114 500 c0 -52 1 -74 3 -47 2 26 2 68 0 95 -2 26 -3 4 -3 -48z"/>
<path d="M1763 190 c0 -25 2 -35 4 -22 2 12 2 32 0 45 -2 12 -4 2 -4 -23z"/>
<path d="M2749 179 c-10 -6 -4 -9 19 -9 17 0 32 2 32 4 0 9 -39 13 -51 5z"/>
<path d="M2410 165 c-14 -8 -20 -14 -14 -15 5 0 19 7 30 15 24 18 16 19 -16 0z"/>
<path d="M2025 160 c-14 -7 -8 -8 20 -3 22 3 42 7 44 9 9 8 -45 2 -64 -6z"/>
<path d="M1925 124 c-45 -20 -70 -25 -104 -21 -34 4 -40 2 -27 -5 27 -15 95
-4 157 25 70 33 51 34 -26 1z"/>
<path d="M2198 133 c7 -3 16 -2 19 1 4 3 -2 6 -13 5 -11 0 -14 -3 -6 -6z"/>
<path d="M2313 133 c9 -2 23 -2 30 0 6 3 -1 5 -18 5 -16 0 -22 -2 -12 -5z"/>
<path d="M1683 123 c9 -2 25 -2 35 0 9 3 1 5 -18 5 -19 0 -27 -2 -17 -5z"/>
<path d="M1618 113 c7 -3 16 -2 19 1 4 3 -2 6 -13 5 -11 0 -14 -3 -6 -6z"/>
</g>
</svg>
